<svg width="24" height="24" viewBox="0 0 24 24" fill="none" xmlns="http://www.w3.org/2000/svg">
<path d="M12 1.5C12.6875 1.5 13.3516 1.58984 13.9922 1.76953C14.6328 1.94922 15.2305 2.19922 15.7852 2.51953C16.3398 2.83984 16.8437 3.23047 17.2969 3.69141C17.75 4.15234 18.1406 4.66016 18.4688 5.21484C18.7969 5.76953 19.0508 6.36719 19.2305 7.00781C19.4102 7.64844 19.5 8.3125 19.5 9V14.5195L21.4453 17.0977C21.5391 17.2305 21.6133 17.3711 21.668 17.5195C21.7227 17.668 21.75 17.8242 21.75 17.9883C21.75 18.1992 21.7109 18.3945 21.6328 18.5742C21.5547 18.7539 21.4492 18.9141 21.3164 19.0547C21.1836 19.1953 21.0234 19.3047 20.8359 19.3828C20.6484 19.4609 20.4492 19.5 20.2383 19.5H15.6797C15.5859 19.9375 15.4258 20.3398 15.1992 20.707C14.9727 21.0742 14.6992 21.3906 14.3789 21.6562C14.0586 21.9219 13.6914 22.1289 13.2773 22.2773C12.8633 22.4258 12.4375 22.5 12 22.5C11.5547 22.5 11.1289 22.4258 10.7227 22.2773C10.3164 22.1289 9.95313 21.9219 9.63281 21.6562C9.3125 21.3906 9.03516 21.0742 8.80078 20.707C8.56641 20.3398 8.40625 19.9375 8.32031 19.5H3.76172C3.55078 19.5 3.35547 19.4609 3.17578 19.3828C2.99609 19.3047 2.83594 19.1992 2.69531 19.0664C2.55469 18.9336 2.44531 18.7734 2.36719 18.5859C2.28906 18.3984 2.25 18.1992 2.25 17.9883C2.25 17.832 2.27734 17.6797 2.33203 17.5312C2.38672 17.3828 2.46094 17.2383 2.55469 17.0977L4.5 14.5195V9C4.5 8.3125 4.58984 7.64844 4.76953 7.00781C4.94922 6.36719 5.19922 5.76953 5.51953 5.21484C5.83984 4.66016 6.23047 4.15625 6.69141 3.70312C7.15234 3.25 7.66016 2.85938 8.21484 2.53125C8.76953 2.20312 9.36719 1.94922 10.0078 1.76953C10.6484 1.58984 11.3125 1.5 12 1.5ZM12 3C11.1719 3 10.3945 3.15625 9.66797 3.46875C8.94141 3.78125 8.30469 4.20703 7.75781 4.74609C7.21094 5.28516 6.78125 5.92187 6.46875 6.65625C6.15625 7.39063 6 8.17188 6 9V14.6484C6 14.7656 5.98047 14.8828 5.94141 15C5.90234 15.1172 5.84766 15.2266 5.77734 15.3281L3.76172 18H20.2383L18.2227 15.3281C18.1523 15.2344 18.0977 15.1289 18.0586 15.0117C18.0195 14.8945 18 14.7734 18 14.6484V9C18 8.17188 17.8437 7.39453 17.5312 6.66797C17.2188 5.94141 16.793 5.30469 16.2539 4.75781C15.7148 4.21094 15.0781 3.78125 14.3438 3.46875C13.6094 3.15625 12.8281 3 12 3ZM9.87891 19.5C9.95703 19.7266 10.0664 19.9297 10.207 20.1094C10.3477 20.2891 10.5117 20.4492 10.6992 20.5898C10.8867 20.7305 11.0898 20.832 11.3086 20.8945C11.5273 20.957 11.7578 20.9922 12 21C12.2344 21 12.4609 20.9648 12.6797 20.8945C12.8984 20.8242 13.1055 20.7227 13.3008 20.5898C13.4961 20.457 13.6602 20.3008 13.793 20.1211C13.9258 19.9414 14.0352 19.7344 14.1211 19.5H9.87891Z" fill="white"/>
</svg>
