<svg width="32" height="26" viewBox="0 0 32 26" fill="none" xmlns="http://www.w3.org/2000/svg">
<g filter="url(#filter0_d_146_9192)">
<path d="M28 12.75C28 13.1641 27.8516 13.5195 27.5547 13.8164C27.2656 14.1055 26.9141 14.25 26.5 14.25H25V15.832C25 16.3242 24.8984 16.793 24.6953 17.2383C24.5 17.6836 24.2344 18.0742 23.8984 18.4102C23.5703 18.7383 23.1836 19.0039 22.7383 19.207C22.293 19.4023 21.8242 19.5 21.332 19.5H7.66797C7.17578 19.5 6.70703 19.4023 6.26172 19.207C5.81641 19.0039 5.42578 18.7383 5.08984 18.4102C4.76172 18.0742 4.49609 17.6836 4.29297 17.2383C4.09766 16.793 4 16.3242 4 15.832V8.16797C4 7.67578 4.09766 7.20703 4.29297 6.76172C4.49609 6.31641 4.76172 5.92969 5.08984 5.60156C5.42578 5.26562 5.81641 5 6.26172 4.80469C6.70703 4.60156 7.17578 4.5 7.66797 4.5H21.332C21.832 4.5 22.3008 4.59766 22.7383 4.79297C23.1836 4.98828 23.5703 5.25391 23.8984 5.58984C24.2266 5.92578 24.4883 6.31641 24.6836 6.76172C24.8789 7.20703 24.9844 7.67578 25 8.16797V8.69531V9.75H26.5C26.7031 9.75 26.8945 9.78906 27.0742 9.86719C27.2539 9.94531 27.4141 10.0547 27.5547 10.1953C27.6953 10.3359 27.8047 10.4961 27.8828 10.6758C27.9609 10.8555 28 11.0469 28 11.25V12.75ZM23.5 8.25C23.5 7.94531 23.4414 7.65625 23.3242 7.38281C23.207 7.10938 23.043 6.87109 22.832 6.66797C22.6289 6.45703 22.3906 6.29297 22.1172 6.17578C21.8438 6.05859 21.5547 6 21.25 6H7.75C7.44531 6 7.15625 6.05859 6.88281 6.17578C6.60938 6.29297 6.36719 6.45703 6.15625 6.66797C5.95312 6.87109 5.79297 7.10938 5.67578 7.38281C5.55859 7.65625 5.5 7.94531 5.5 8.25V15.75C5.5 16.0547 5.55859 16.3438 5.67578 16.6172C5.79297 16.8906 5.95312 17.1328 6.15625 17.3438C6.36719 17.5469 6.60938 17.707 6.88281 17.8242C7.15625 17.9414 7.44531 18 7.75 18H21.25C21.5547 18 21.8438 17.9414 22.1172 17.8242C22.3906 17.707 22.6289 17.5469 22.832 17.3438C23.043 17.1328 23.207 16.8906 23.3242 16.6172C23.4414 16.3438 23.5 16.0547 23.5 15.75V8.25ZM16.375 7.5C16.6875 7.5 16.9531 7.60937 17.1719 7.82812C17.3906 8.04688 17.5 8.3125 17.5 8.625V15.375C17.5 15.6875 17.3906 15.9531 17.1719 16.1719C16.9531 16.3906 16.6875 16.5 16.375 16.5H8.125C7.8125 16.5 7.54688 16.3906 7.32812 16.1719C7.10938 15.9531 7 15.6875 7 15.375V8.625C7 8.3125 7.10938 8.04688 7.32812 7.82812C7.54688 7.60937 7.8125 7.5 8.125 7.5H16.375Z" fill="white"/>
</g>
<defs>
<filter id="filter0_d_146_9192" x="0" y="-2" width="32.022" height="32" filterUnits="userSpaceOnUse" color-interpolation-filters="sRGB">
<feFlood flood-opacity="0" result="BackgroundImageFix"/>
<feColorMatrix in="SourceAlpha" type="matrix" values="0 0 0 0 0 0 0 0 0 0 0 0 0 0 0 0 0 0 127 0" result="hardAlpha"/>
<feOffset dy="2"/>
<feGaussianBlur stdDeviation="2"/>
<feComposite in2="hardAlpha" operator="out"/>
<feColorMatrix type="matrix" values="0 0 0 0 0 0 0 0 0 0 0 0 0 0 0 0 0 0 0.13 0"/>
<feBlend mode="normal" in2="BackgroundImageFix" result="effect1_dropShadow_146_9192"/>
<feBlend mode="normal" in="SourceGraphic" in2="effect1_dropShadow_146_9192" result="shape"/>
</filter>
</defs>
</svg>
