<svg width="24" height="24" viewBox="0 0 24 24" fill="none" xmlns="http://www.w3.org/2000/svg">
<path d="M21 9.1875V21C21 21.4141 20.9219 21.8008 20.7656 22.1602C20.6094 22.5195 20.3945 22.8398 20.1211 23.1211C19.8477 23.4023 19.5312 23.6172 19.1719 23.7656C18.8125 23.9141 18.4219 23.9922 18 24H6C5.58594 24 5.19922 23.9219 4.83984 23.7656C4.48047 23.6094 4.16016 23.3945 3.87891 23.1211C3.59766 22.8477 3.38281 22.5312 3.23438 22.1719C3.08594 21.8125 3.00781 21.4219 3 21V3C3 2.58594 3.07813 2.19922 3.23438 1.83984C3.39062 1.48047 3.60547 1.16016 3.87891 0.878906C4.15234 0.597656 4.46875 0.382813 4.82812 0.234375C5.1875 0.0859375 5.57812 0.0078125 6 0H11.8125C12.2109 0 12.5937 0.0742187 12.9609 0.222656C13.3281 0.371094 13.6523 0.589844 13.9336 0.878906L20.1211 7.06641C20.4023 7.34766 20.6172 7.67187 20.7656 8.03906C20.9141 8.40625 20.9922 8.78906 21 9.1875ZM12 1.51172C11.9687 1.50391 11.9375 1.5 11.9062 1.5H6C5.78906 1.5 5.59375 1.53906 5.41406 1.61719C5.23438 1.69531 5.07812 1.80078 4.94531 1.93359C4.8125 2.06641 4.70313 2.22656 4.61719 2.41406C4.53125 2.60156 4.49219 2.79687 4.5 3V21C4.5 21.2109 4.53906 21.4063 4.61719 21.5859C4.69531 21.7656 4.80078 21.9258 4.93359 22.0664C5.06641 22.207 5.22266 22.3125 5.40234 22.3828C5.58203 22.4531 5.78125 22.4922 6 22.5H18C18.2109 22.5 18.4063 22.4609 18.5859 22.3828C18.7656 22.3047 18.9219 22.1992 19.0547 22.0664C19.1875 21.9336 19.2969 21.7734 19.3828 21.5859C19.4688 21.3984 19.5078 21.2031 19.5 21V9.09375C19.5 9.0625 19.4961 9.03125 19.4883 9H15C14.5859 9 14.1992 8.92187 13.8398 8.76562C13.4805 8.60938 13.1602 8.39453 12.8789 8.12109C12.5977 7.84766 12.3828 7.53125 12.2344 7.17188C12.0859 6.8125 12.0078 6.42188 12 6V1.51172ZM18.4453 7.5L13.5 2.55469V6C13.5 6.21094 13.5391 6.40625 13.6172 6.58594C13.6953 6.76562 13.8008 6.92578 13.9336 7.06641C14.0664 7.20703 14.2227 7.3125 14.4023 7.38281C14.582 7.45312 14.7813 7.49219 15 7.5H18.4453Z" fill="white"/>
</svg>
