<svg width="24" height="24" viewBox="0 0 24 24" fill="none" xmlns="http://www.w3.org/2000/svg">
<path d="M14.9977 5C18.8637 5 21.9977 8.13401 21.9977 12C21.9977 15.7855 18.9929 18.8691 15.2383 18.9959L14.9977 19H9.00195C5.13595 19 2.00195 15.866 2.00195 12C2.00195 8.21455 5.00673 5.1309 8.7613 5.00406L9.00195 5H14.9977ZM14.9977 6.5H9.00195C5.96438 6.5 3.50195 8.96243 3.50195 12C3.50195 14.9635 5.84573 17.3795 8.78074 17.4956L9.00195 17.5H14.9977C18.0352 17.5 20.4977 15.0376 20.4977 12C20.4977 9.03652 18.1539 6.62046 15.2189 6.50437L14.9977 6.5ZM7.99983 9C8.41404 9 8.74983 9.33579 8.74983 9.75L8.74895 11.248L10.2498 11.2487C10.664 11.2487 10.9998 11.5845 10.9998 11.9987C10.9998 12.413 10.664 12.7487 10.2498 12.7487L8.74895 12.748L8.74983 14.25C8.74983 14.6642 8.41404 15 7.99983 15C7.58562 15 7.24983 14.6642 7.24983 14.25L7.24895 12.748L5.74983 12.7487C5.33562 12.7487 4.99983 12.413 4.99983 11.9987C4.99983 11.5845 5.33562 11.2487 5.74983 11.2487L7.24895 11.248L7.24983 9.75C7.24983 9.33579 7.58562 9 7.99983 9ZM14.7498 12.5C15.4401 12.5 15.9998 13.0596 15.9998 13.75C15.9998 14.4404 15.4401 15 14.7498 15C14.0594 15 13.4998 14.4404 13.4998 13.75C13.4998 13.0596 14.0594 12.5 14.7498 12.5ZM16.7498 9C17.4401 9 17.9998 9.55964 17.9998 10.25C17.9998 10.9404 17.4401 11.5 16.7498 11.5C16.0594 11.5 15.4998 10.9404 15.4998 10.25C15.4998 9.55964 16.0594 9 16.7498 9Z" fill="white"/>
</svg>
