<svg width="24" height="24" viewBox="0 0 24 24" fill="none" xmlns="http://www.w3.org/2000/svg">
<path d="M2.25 24C1.94531 24 1.65625 23.9414 1.38281 23.8242C1.10938 23.707 0.867188 23.5469 0.65625 23.3438C0.453125 23.1328 0.292969 22.8906 0.175781 22.6172C0.0585938 22.3438 0 22.0547 0 21.75V2.25C0 1.94531 0.0585938 1.65625 0.175781 1.38281C0.292969 1.10938 0.453125 0.871094 0.65625 0.667969C0.867188 0.457031 1.10938 0.292969 1.38281 0.175781C1.65625 0.0585938 1.94531 0 2.25 0H3.75C4.05469 0 4.34375 0.0585938 4.61719 0.175781C4.89062 0.292969 5.12891 0.457031 5.33203 0.667969C5.54297 0.871094 5.70703 1.10938 5.82422 1.38281C5.94141 1.65625 6 1.94531 6 2.25V21.75C6 22.0547 5.94141 22.3438 5.82422 22.6172C5.70703 22.8906 5.54297 23.1328 5.33203 23.3438C5.12891 23.5469 4.89062 23.707 4.61719 23.8242C4.34375 23.9414 4.05469 24 3.75 24H2.25ZM9.75 24C9.44531 24 9.15625 23.9414 8.88281 23.8242C8.60938 23.707 8.36719 23.5469 8.15625 23.3438C7.95312 23.1328 7.79297 22.8906 7.67578 22.6172C7.55859 22.3438 7.5 22.0547 7.5 21.75V2.25C7.5 1.94531 7.55859 1.65625 7.67578 1.38281C7.79297 1.10938 7.95312 0.871094 8.15625 0.667969C8.36719 0.457031 8.60938 0.292969 8.88281 0.175781C9.15625 0.0585938 9.44531 0 9.75 0H11.25C11.5547 0 11.8438 0.0585938 12.1172 0.175781C12.3906 0.292969 12.6289 0.457031 12.832 0.667969C13.043 0.871094 13.207 1.10938 13.3242 1.38281C13.4414 1.65625 13.5 1.94531 13.5 2.25V21.75C13.5 22.0547 13.4414 22.3438 13.3242 22.6172C13.207 22.8906 13.043 23.1328 12.832 23.3438C12.6289 23.5469 12.3906 23.707 12.1172 23.8242C11.8438 23.9414 11.5547 24 11.25 24H9.75ZM3.75 22.5C3.95312 22.5 4.12891 22.4258 4.27734 22.2773C4.42578 22.1289 4.5 21.9531 4.5 21.75V2.25C4.5 2.04688 4.42578 1.87109 4.27734 1.72266C4.12891 1.57422 3.95312 1.5 3.75 1.5H2.25C2.04688 1.5 1.87109 1.57422 1.72266 1.72266C1.57422 1.87109 1.5 2.04688 1.5 2.25V21.75C1.5 21.9531 1.57422 22.1289 1.72266 22.2773C1.87109 22.4258 2.04688 22.5 2.25 22.5H3.75ZM11.25 22.5C11.4531 22.5 11.6289 22.4258 11.7773 22.2773C11.9258 22.1289 12 21.9531 12 21.75V2.25C12 2.04688 11.9258 1.87109 11.7773 1.72266C11.6289 1.57422 11.4531 1.5 11.25 1.5H9.75C9.54688 1.5 9.37109 1.57422 9.22266 1.72266C9.07422 1.87109 9 2.04688 9 2.25V21.75C9 21.9531 9.07422 22.1289 9.22266 22.2773C9.37109 22.4258 9.54688 22.5 9.75 22.5H11.25ZM15.0117 7.06641C15.0117 6.55078 15.1602 6.09766 15.457 5.70703C15.7617 5.31641 16.1602 5.04688 16.6523 4.89844C16.9336 4.8125 17.2227 4.72266 17.5195 4.62891C17.8164 4.53516 18.1133 4.48828 18.4102 4.48828C18.668 4.48828 18.9141 4.53516 19.1484 4.62891C19.3906 4.71484 19.6055 4.83594 19.793 4.99219C19.9883 5.14844 20.1523 5.33594 20.2852 5.55469C20.4258 5.76562 20.5273 5.99609 20.5898 6.24609L23.9414 20.8359C23.9805 21.0156 24 21.1836 24 21.3398C24 21.8633 23.8438 22.3242 23.5312 22.7227C23.2266 23.1133 22.8242 23.3789 22.3242 23.5195C21.9961 23.6133 21.6562 23.7148 21.3047 23.8242C20.9609 23.9336 20.6133 23.9883 20.2617 23.9883C19.9961 23.9883 19.7422 23.9453 19.5 23.8594C19.2578 23.7656 19.0391 23.6406 18.8438 23.4844C18.6484 23.3281 18.4805 23.1406 18.3398 22.9219C18.207 22.6953 18.1133 22.4531 18.0586 22.1953L15.0586 7.51172C15.0273 7.37891 15.0117 7.23047 15.0117 7.06641ZM22.5 21.3516C22.5 21.3125 22.4922 21.2539 22.4766 21.1758L19.125 6.57422C19.0859 6.41016 18.9961 6.27344 18.8555 6.16406C18.7227 6.05469 18.5703 6 18.3984 6C18.1953 6 17.9688 6.04297 17.7188 6.12891C17.4766 6.20703 17.2539 6.27734 17.0508 6.33984C16.8945 6.38672 16.7656 6.48047 16.6641 6.62109C16.5625 6.75391 16.5117 6.90234 16.5117 7.06641C16.5117 7.08984 16.5117 7.11719 16.5117 7.14844C16.5117 7.17188 16.5156 7.19531 16.5234 7.21875L19.5234 21.8906C19.5625 22.0703 19.6484 22.2148 19.7812 22.3242C19.9219 22.4336 20.082 22.4883 20.2617 22.4883C20.3555 22.4883 20.4766 22.4727 20.625 22.4414C20.7734 22.4102 20.9258 22.3711 21.082 22.3242C21.2461 22.2773 21.4023 22.2305 21.5508 22.1836C21.707 22.1367 21.8359 22.0977 21.9375 22.0664C22.0938 22.0195 22.2266 21.9336 22.3359 21.8086C22.4453 21.6758 22.5 21.5234 22.5 21.3516Z" fill="white"/>
</svg>
