<svg width="20" height="22" viewBox="0 0 20 22" fill="none" xmlns="http://www.w3.org/2000/svg">
<path d="M10 0.5C10.6875 0.5 11.3516 0.589844 11.9922 0.769531C12.6328 0.949219 13.2305 1.20312 13.7852 1.53125C14.3398 1.85156 14.8438 2.24219 15.2969 2.70312C15.7578 3.15625 16.1484 3.66016 16.4688 4.21484C16.7969 4.76953 17.0508 5.36719 17.2305 6.00781C17.4102 6.64844 17.5 7.3125 17.5 8V13.5195L19.4453 16.0977C19.5391 16.2305 19.6133 16.375 19.668 16.5312C19.7227 16.6797 19.75 16.832 19.75 16.9883C19.75 17.1992 19.7109 17.3984 19.6328 17.5859C19.5547 17.7656 19.4453 17.9258 19.3047 18.0664C19.1719 18.1992 19.0117 18.3047 18.8242 18.3828C18.6445 18.4609 18.4492 18.5 18.2383 18.5H13.6797C13.5859 18.9375 13.4258 19.3398 13.1992 19.707C12.9727 20.0742 12.6953 20.3906 12.3672 20.6562C12.0469 20.9219 11.6836 21.1289 11.2773 21.2773C10.8711 21.4258 10.4453 21.5 10 21.5C9.55469 21.5 9.12891 21.4258 8.72266 21.2773C8.31641 21.1289 7.94922 20.9219 7.62109 20.6562C7.30078 20.3906 7.02734 20.0742 6.80078 19.707C6.57422 19.3398 6.41406 18.9375 6.32031 18.5H1.76172C1.55078 18.5 1.35156 18.4609 1.16406 18.3828C0.984375 18.3047 0.824219 18.1992 0.683594 18.0664C0.550781 17.9258 0.445312 17.7656 0.367188 17.5859C0.289062 17.3984 0.25 17.1992 0.25 16.9883C0.25 16.832 0.277344 16.6797 0.332031 16.5312C0.386719 16.375 0.460938 16.2305 0.554688 16.0977L2.5 13.5195V8C2.5 7.3125 2.58984 6.64844 2.76953 6.00781C2.94922 5.36719 3.19922 4.76953 3.51953 4.21484C3.84766 3.66016 4.23828 3.15625 4.69141 2.70312C5.15234 2.24219 5.66016 1.85156 6.21484 1.53125C6.76953 1.20312 7.36719 0.949219 8.00781 0.769531C8.64844 0.589844 9.3125 0.5 10 0.5ZM10 2C9.17188 2 8.39062 2.15625 7.65625 2.46875C6.92969 2.78125 6.29297 3.21094 5.74609 3.75781C5.20703 4.29688 4.78125 4.93359 4.46875 5.66797C4.15625 6.39453 4 7.17188 4 8V13.6484C4 13.7656 3.98047 13.8867 3.94141 14.0117C3.90234 14.1289 3.84766 14.2344 3.77734 14.3281L1.76172 17H18.2383L16.2227 14.3281C16.1523 14.2344 16.0977 14.1289 16.0586 14.0117C16.0195 13.8867 16 13.7656 16 13.6484V8C16 7.17188 15.8438 6.39453 15.5312 5.66797C15.2188 4.93359 14.7891 4.29688 14.2422 3.75781C13.7031 3.21094 13.0664 2.78125 12.332 2.46875C11.6055 2.15625 10.8281 2 10 2ZM7.87891 18.5C7.95703 18.7266 8.06641 18.9336 8.20703 19.1211C8.34766 19.3008 8.51172 19.457 8.69922 19.5898C8.88672 19.7227 9.08984 19.8242 9.30859 19.8945C9.53516 19.9648 9.76562 20 10 20C10.2344 20 10.4609 19.9648 10.6797 19.8945C10.9062 19.8242 11.1133 19.7227 11.3008 19.5898C11.4883 19.457 11.6523 19.3008 11.793 19.1211C11.9336 18.9336 12.043 18.7266 12.1211 18.5H7.87891Z" fill="white"/>
</svg>
