<svg width="24" height="24" viewBox="0 0 24 24" fill="none" xmlns="http://www.w3.org/2000/svg">
<path d="M7.04297 19.1836C6.76953 19.1836 6.5 19.2344 6.23438 19.3359C5.96875 19.4375 5.70312 19.5469 5.4375 19.6641C5.17969 19.7812 4.91797 19.8906 4.65234 19.9922C4.38672 20.0938 4.11719 20.1445 3.84375 20.1445C3.60938 20.1445 3.39453 20.0977 3.19922 20.0039C3.00391 19.9023 2.82812 19.7617 2.67188 19.582C2.57031 19.4648 2.44922 19.3086 2.30859 19.1133C2.17578 18.918 2.03516 18.7031 1.88672 18.4688C1.73828 18.2344 1.58984 17.9883 1.44141 17.7305C1.29297 17.4648 1.16016 17.2109 1.04297 16.9688C0.933594 16.7188 0.84375 16.4844 0.773438 16.2656C0.703125 16.0469 0.667969 15.8633 0.667969 15.7148C0.667969 15.4336 0.738281 15.1836 0.878906 14.9648C1.01953 14.7383 1.19141 14.5352 1.39453 14.3555C1.60547 14.168 1.83203 13.9922 2.07422 13.8281C2.32422 13.6641 2.55078 13.4922 2.75391 13.3125C2.96484 13.125 3.14062 12.9297 3.28125 12.7266C3.42188 12.5156 3.49219 12.2734 3.49219 12C3.49219 11.7344 3.42188 11.4961 3.28125 11.2852C3.14062 11.0742 2.96484 10.8789 2.75391 10.6992C2.54297 10.5117 2.31641 10.332 2.07422 10.1602C1.83203 9.98828 1.60547 9.80859 1.39453 9.62109C1.18359 9.42578 1.00781 9.21875 0.867188 9C0.726562 8.78125 0.65625 8.53125 0.65625 8.25C0.65625 8.10938 0.691406 7.92969 0.761719 7.71094C0.839844 7.49219 0.9375 7.25781 1.05469 7.00781C1.17188 6.75781 1.30469 6.50391 1.45312 6.24609C1.60938 5.98047 1.76172 5.73047 1.91016 5.49609C2.06641 5.25391 2.21484 5.03516 2.35547 4.83984C2.49609 4.64453 2.61719 4.49219 2.71875 4.38281C2.875 4.21094 3.05078 4.07812 3.24609 3.98438C3.44922 3.89062 3.66406 3.84375 3.89062 3.84375C4.16406 3.84375 4.42969 3.89453 4.6875 3.99609C4.94531 4.09766 5.20312 4.21094 5.46094 4.33594C5.71875 4.45312 5.97656 4.5625 6.23438 4.66406C6.5 4.76562 6.76953 4.81641 7.04297 4.81641C7.39453 4.81641 7.69531 4.71094 7.94531 4.5C8.20312 4.28125 8.36328 4 8.42578 3.65625C8.49609 3.27344 8.56641 2.89063 8.63672 2.50781C8.70703 2.125 8.77734 1.74219 8.84766 1.35938C8.91016 1.03125 9.05078 0.761719 9.26953 0.550781C9.49609 0.339844 9.77344 0.203125 10.1016 0.140625C10.4141 0.0859375 10.7305 0.0507812 11.0508 0.0351562C11.3711 0.0117188 11.6875 0 12 0C12.3281 0 12.6562 0.0117188 12.9844 0.0351562C13.3125 0.0585938 13.6367 0.101563 13.957 0.164062C14.2852 0.226562 14.5547 0.363281 14.7656 0.574219C14.9766 0.785156 15.1133 1.05469 15.1758 1.38281C15.2461 1.76563 15.3125 2.14453 15.375 2.51953C15.4375 2.89453 15.5039 3.27344 15.5742 3.65625C15.6367 3.99219 15.7969 4.26953 16.0547 4.48828C16.3125 4.70703 16.6133 4.81641 16.957 4.81641C17.2305 4.81641 17.5 4.76562 17.7656 4.66406C18.0312 4.5625 18.293 4.45312 18.5508 4.33594C18.8164 4.21875 19.082 4.10938 19.3477 4.00781C19.6133 3.90625 19.8828 3.85547 20.1562 3.85547C20.3984 3.85547 20.6133 3.90625 20.8008 4.00781C20.9961 4.10156 21.1719 4.23828 21.3281 4.41797C21.4297 4.53516 21.5469 4.69141 21.6797 4.88672C21.8203 5.08203 21.9648 5.29688 22.1133 5.53125C22.2617 5.76562 22.4102 6.01562 22.5586 6.28125C22.707 6.53906 22.8359 6.79297 22.9453 7.04297C23.0625 7.28516 23.1562 7.51562 23.2266 7.73438C23.2969 7.95312 23.332 8.13672 23.332 8.28516C23.332 8.57422 23.2617 8.82812 23.1211 9.04688C22.9805 9.26562 22.8047 9.46875 22.5938 9.65625C22.3906 9.83594 22.1641 10.0078 21.9141 10.1719C21.6719 10.3359 21.4453 10.5117 21.2344 10.6992C21.0312 10.8789 20.8594 11.0742 20.7188 11.2852C20.5781 11.4883 20.5078 11.7266 20.5078 12C20.5078 12.2656 20.5781 12.5039 20.7188 12.7148C20.8594 12.9258 21.0352 13.125 21.2461 13.3125C21.457 13.4922 21.6836 13.668 21.9258 13.8398C22.168 14.0117 22.3945 14.1953 22.6055 14.3906C22.8164 14.5781 22.9922 14.7812 23.1328 15C23.2734 15.2188 23.3438 15.4688 23.3438 15.75C23.3438 15.9062 23.3047 16.0938 23.2266 16.3125C23.1562 16.5234 23.0625 16.7539 22.9453 17.0039C22.8281 17.2539 22.6914 17.5078 22.5352 17.7656C22.3867 18.0234 22.2344 18.2695 22.0781 18.5039C21.9297 18.7383 21.7812 18.9531 21.6328 19.1484C21.4922 19.3438 21.3711 19.5 21.2695 19.6172C21.1133 19.7891 20.9375 19.9219 20.7422 20.0156C20.5547 20.1094 20.3477 20.1562 20.1211 20.1562C19.8633 20.1562 19.5977 20.1055 19.3242 20.0039C19.0586 19.9023 18.793 19.793 18.5273 19.6758C18.2617 19.5508 17.9961 19.4375 17.7305 19.3359C17.4648 19.2344 17.207 19.1836 16.957 19.1836C16.6133 19.1836 16.3477 19.2539 16.1602 19.3945C15.9727 19.5352 15.8281 19.7188 15.7266 19.9453C15.625 20.1641 15.5508 20.4102 15.5039 20.6836C15.4648 20.9492 15.4219 21.207 15.375 21.457C15.3359 21.6602 15.2969 21.8594 15.2578 22.0547C15.2266 22.2422 15.1914 22.4375 15.1523 22.6406C15.0898 22.9766 14.9492 23.25 14.7305 23.4609C14.5117 23.6641 14.2344 23.7969 13.8984 23.8594C13.5859 23.9141 13.2695 23.9531 12.9492 23.9766C12.6367 23.9922 12.3203 24 12 24C11.6719 24 11.3438 23.9883 11.0156 23.9648C10.6875 23.9414 10.3633 23.8984 10.043 23.8359C9.71484 23.7734 9.44531 23.6367 9.23438 23.4258C9.02344 23.207 8.88672 22.9336 8.82422 22.6055C8.75391 22.2305 8.6875 21.8555 8.625 21.4805C8.5625 21.0977 8.49609 20.7188 8.42578 20.3438C8.36328 20.0078 8.20312 19.7305 7.94531 19.5117C7.6875 19.293 7.38672 19.1836 7.04297 19.1836ZM13.6758 22.3828C13.707 22.2109 13.7422 22 13.7812 21.75C13.8203 21.4922 13.8633 21.2305 13.9102 20.9648C13.957 20.6992 14.0078 20.4453 14.0625 20.2031C14.1172 19.9609 14.1719 19.7656 14.2266 19.6172C14.4453 19.0312 14.7969 18.5625 15.2812 18.2109C15.7656 17.8594 16.3242 17.6836 16.957 17.6836C17.168 17.6836 17.4102 17.7227 17.6836 17.8008C17.9648 17.8711 18.25 17.957 18.5391 18.0586C18.8359 18.1602 19.1211 18.2656 19.3945 18.375C19.668 18.4844 19.9102 18.5781 20.1211 18.6562C20.4883 18.2188 20.8125 17.7578 21.0938 17.2734C21.375 16.7812 21.6211 16.2734 21.832 15.75V15.7383L20.0391 14.2148C19.7109 13.9414 19.457 13.6133 19.2773 13.2305C19.0977 12.8398 19.0078 12.4297 19.0078 12C19.0078 11.5703 19.0977 11.1602 19.2773 10.7695C19.4648 10.3789 19.7227 10.0469 20.0508 9.77344L21.8203 8.29688V8.28516C21.8203 8.27734 21.8047 8.23438 21.7734 8.15625C21.7422 8.07031 21.7227 8.02344 21.7148 8.01562C21.5273 7.53125 21.3008 7.07031 21.0352 6.63281C20.7773 6.1875 20.4844 5.76172 20.1562 5.35547H20.1445L17.9414 6.15234C17.6289 6.26172 17.3086 6.31641 16.9805 6.31641C16.4492 6.31641 15.9609 6.1875 15.5156 5.92969C15.1406 5.71875 14.8281 5.4375 14.5781 5.08594C14.3359 4.73438 14.1758 4.34766 14.0977 3.92578L13.6992 1.64062C13.1367 1.54688 12.5703 1.5 12 1.5C11.7188 1.5 11.4375 1.51172 11.1562 1.53516C10.875 1.55078 10.5977 1.57813 10.3242 1.61719C10.2539 2.00781 10.1875 2.39453 10.125 2.77734C10.0625 3.16016 9.98828 3.54297 9.90234 3.92578C9.83203 4.26953 9.71094 4.58984 9.53906 4.88672C9.36719 5.17578 9.15625 5.42578 8.90625 5.63672C8.65625 5.84766 8.375 6.01562 8.0625 6.14062C7.75 6.25781 7.41406 6.31641 7.05469 6.31641C6.70312 6.31641 6.37109 6.25781 6.05859 6.14062H6.04688L3.89062 5.34375H3.87891C3.51953 5.78906 3.19531 6.25391 2.90625 6.73828C2.61719 7.21484 2.37109 7.71875 2.16797 8.25V8.26172L3.96094 9.78516C4.28906 10.0586 4.54297 10.3906 4.72266 10.7812C4.90234 11.1641 4.99219 11.5703 4.99219 12C4.99219 12.4297 4.89844 12.8398 4.71094 13.2305C4.53125 13.6211 4.27734 13.9531 3.94922 14.2266L2.17969 15.7031V15.7148C2.17969 15.7227 2.19531 15.7695 2.22656 15.8555C2.25781 15.9336 2.27734 15.9766 2.28516 15.9844C2.47266 16.4688 2.69531 16.9336 2.95312 17.3789C3.21875 17.8164 3.51562 18.2383 3.84375 18.6445H3.85547L6.05859 17.8477C6.37109 17.7383 6.69141 17.6836 7.01953 17.6836C7.55078 17.6836 8.03906 17.8125 8.48438 18.0703C8.85938 18.2812 9.16797 18.5625 9.41016 18.9141C9.66016 19.2656 9.82422 19.6523 9.90234 20.0742L10.3008 22.3594C10.8633 22.4531 11.4297 22.5 12 22.5C12.2812 22.5 12.5625 22.4922 12.8438 22.4766C13.125 22.4531 13.4023 22.4219 13.6758 22.3828ZM7.5 12C7.5 11.375 7.61719 10.7891 7.85156 10.2422C8.08594 9.69531 8.40625 9.21875 8.8125 8.8125C9.21875 8.40625 9.69531 8.08594 10.2422 7.85156C10.7891 7.61719 11.375 7.5 12 7.5C12.625 7.5 13.2109 7.61719 13.7578 7.85156C14.3047 8.08594 14.7812 8.40625 15.1875 8.8125C15.5938 9.21875 15.9141 9.69531 16.1484 10.2422C16.3828 10.7891 16.5 11.375 16.5 12C16.5 12.625 16.3828 13.2109 16.1484 13.7578C15.9141 14.3047 15.5938 14.7812 15.1875 15.1875C14.7812 15.5938 14.3047 15.9141 13.7578 16.1484C13.2109 16.3828 12.625 16.5 12 16.5C11.375 16.5 10.7891 16.3828 10.2422 16.1484C9.69531 15.9141 9.21875 15.5938 8.8125 15.1875C8.40625 14.7812 8.08594 14.3047 7.85156 13.7578C7.61719 13.2109 7.5 12.625 7.5 12ZM15 12C15 11.5859 14.9219 11.1992 14.7656 10.8398C14.6094 10.4727 14.3945 10.1523 14.1211 9.87891C13.8477 9.60547 13.5273 9.39062 13.1602 9.23438C12.8008 9.07812 12.4141 9 12 9C11.5859 9 11.1953 9.07812 10.8281 9.23438C10.4688 9.39062 10.1523 9.60547 9.87891 9.87891C9.60547 10.1523 9.39062 10.4727 9.23438 10.8398C9.07812 11.1992 9 11.5859 9 12C9 12.4141 9.07812 12.8047 9.23438 13.1719C9.39062 13.5312 9.60547 13.8477 9.87891 14.1211C10.1523 14.3945 10.4688 14.6094 10.8281 14.7656C11.1953 14.9219 11.5859 15 12 15C12.4141 15 12.8008 14.9219 13.1602 14.7656C13.5273 14.6094 13.8477 14.3945 14.1211 14.1211C14.3945 13.8477 14.6094 13.5312 14.7656 13.1719C14.9219 12.8047 15 12.4141 15 12Z" fill="white"/>
</svg>
