<svg width="24" height="24" viewBox="0 0 24 24" fill="none" xmlns="http://www.w3.org/2000/svg">
<path d="M21 3.75V9.75C21 10.0625 20.9414 10.3555 20.8242 10.6289C20.707 10.9023 20.5469 11.1406 20.3438 11.3438C20.1406 11.5469 19.9023 11.707 19.6289 11.8242C19.3555 11.9414 19.0625 12 18.75 12H12V18.75C12 19.0625 11.9414 19.3555 11.8242 19.6289C11.707 19.9023 11.5469 20.1406 11.3438 20.3438C11.1406 20.5469 10.9023 20.707 10.6289 20.8242C10.3555 20.9414 10.0625 21 9.75 21H3.75C3.4375 21 3.14453 20.9414 2.87109 20.8242C2.59766 20.707 2.35938 20.5469 2.15625 20.3438C1.95312 20.1406 1.79297 19.9023 1.67578 19.6289C1.55859 19.3555 1.5 19.0625 1.5 18.75V3.75C1.5 3.4375 1.55859 3.14453 1.67578 2.87109C1.79297 2.59766 1.95312 2.35938 2.15625 2.15625C2.35938 1.95312 2.59766 1.79297 2.87109 1.67578C3.14453 1.55859 3.4375 1.5 3.75 1.5H18.75C19.0625 1.5 19.3555 1.55859 19.6289 1.67578C19.9023 1.79297 20.1406 1.95312 20.3438 2.15625C20.5469 2.35938 20.707 2.59766 20.8242 2.87109C20.9414 3.14453 21 3.4375 21 3.75ZM3 10.5H10.5V3H3.75C3.54687 3 3.37109 3.07422 3.22266 3.22266C3.07422 3.37109 3 3.54687 3 3.75V10.5ZM19.5 3.75C19.5 3.54687 19.4258 3.37109 19.2773 3.22266C19.1289 3.07422 18.9531 3 18.75 3H12V10.5H18.75C18.9531 10.5 19.1289 10.4258 19.2773 10.2773C19.4258 10.1289 19.5 9.95313 19.5 9.75V3.75ZM10.5 12H3V18.75C3 18.9531 3.07422 19.1289 3.22266 19.2773C3.37109 19.4258 3.54687 19.5 3.75 19.5H9.75C9.95313 19.5 10.1289 19.4258 10.2773 19.2773C10.4258 19.1289 10.5 18.9531 10.5 18.75V12Z" fill="white"/>
</svg>
