<svg width="22" height="22" viewBox="0 0 22 22" fill="none" xmlns="http://www.w3.org/2000/svg">
<path d="M2 12.5C2 12.9219 2.14453 13.2773 2.43359 13.5664C2.72266 13.8555 3.07812 14 3.5 14H5V15.5H3.44141C3.05078 15.5 2.67578 15.4219 2.31641 15.2656C1.96484 15.1016 1.65234 14.8867 1.37891 14.6211C1.11328 14.3477 0.898438 14.0352 0.734375 13.6836C0.578125 13.3242 0.5 12.9492 0.5 12.5586V3.44141C0.5 3.05078 0.578125 2.67969 0.734375 2.32812C0.898438 1.96875 1.11328 1.65625 1.37891 1.39062C1.65234 1.11719 1.96484 0.902344 2.31641 0.746094C2.67578 0.582031 3.05078 0.5 3.44141 0.5H12.5586C12.9492 0.5 13.3203 0.582031 13.6719 0.746094C14.0312 0.902344 14.3438 1.11719 14.6094 1.39062C14.8828 1.65625 15.0977 1.96875 15.2539 2.32812C15.418 2.67969 15.5 3.05078 15.5 3.44141V5H14V3.5C14 3.29688 13.9609 3.10547 13.8828 2.92578C13.8047 2.74609 13.6953 2.58594 13.5547 2.44531C13.4141 2.30469 13.2539 2.19531 13.0742 2.11719C12.8945 2.03906 12.7031 2 12.5 2H3.5C3.28906 2 3.09375 2.03906 2.91406 2.11719C2.73438 2.19531 2.57422 2.30469 2.43359 2.44531C2.30078 2.57812 2.19531 2.73438 2.11719 2.91406C2.03906 3.09375 2 3.28906 2 3.5V12.5ZM5 4.25V5.75C5 5.95312 4.92578 6.12891 4.77734 6.27734C4.62891 6.42578 4.45312 6.5 4.25 6.5C4.04688 6.5 3.87109 6.42578 3.72266 6.27734C3.57422 6.12891 3.5 5.95312 3.5 5.75V4.25C3.5 4.04688 3.57422 3.87109 3.72266 3.72266C3.87109 3.57422 4.04688 3.5 4.25 3.5C4.45312 3.5 4.62891 3.57422 4.77734 3.72266C4.92578 3.87109 5 4.04688 5 4.25ZM11 4.25C11 4.04688 11.0742 3.87109 11.2227 3.72266C11.3711 3.57422 11.5469 3.5 11.75 3.5C11.9531 3.5 12.1289 3.57422 12.2773 3.72266C12.4258 3.87109 12.5 4.04688 12.5 4.25V5H11V4.25ZM18.5586 6.5C18.9492 6.5 19.3203 6.58203 19.6719 6.74609C20.0312 6.90234 20.3438 7.11719 20.6094 7.39062C20.8828 7.65625 21.0977 7.96875 21.2539 8.32812C21.418 8.67969 21.5 9.05078 21.5 9.44141V18.5586C21.5 18.9492 21.418 19.3242 21.2539 19.6836C21.0977 20.0352 20.8828 20.3477 20.6094 20.6211C20.3438 20.8867 20.0312 21.1016 19.6719 21.2656C19.3203 21.4219 18.9492 21.5 18.5586 21.5H9.44141C9.05078 21.5 8.67578 21.4219 8.31641 21.2656C7.96484 21.1016 7.65234 20.8867 7.37891 20.6211C7.11328 20.3477 6.89844 20.0352 6.73438 19.6836C6.57812 19.3242 6.5 18.9492 6.5 18.5586V9.44141C6.5 9.05078 6.57812 8.67969 6.73438 8.32812C6.89844 7.96875 7.11328 7.65625 7.37891 7.39062C7.65234 7.11719 7.96484 6.90234 8.31641 6.74609C8.67578 6.58203 9.05078 6.5 9.44141 6.5H18.5586ZM8 18.5C8 18.5625 8.00391 18.6289 8.01172 18.6992C8.01953 18.7617 8.03125 18.8242 8.04688 18.8867L12.4062 14.5273C12.6094 14.3242 12.8516 14.168 13.1328 14.0586C13.4141 13.9492 13.7031 13.8945 14 13.8945C14.2969 13.8945 14.582 13.9492 14.8555 14.0586C15.1367 14.1602 15.3828 14.3164 15.5938 14.5273L19.9531 18.8867C19.9688 18.8242 19.9805 18.7617 19.9883 18.6992C19.9961 18.6289 20 18.5625 20 18.5V9.5C20 9.29688 19.9609 9.10547 19.8828 8.92578C19.8047 8.73828 19.6953 8.57812 19.5547 8.44531C19.4219 8.30469 19.2617 8.19531 19.0742 8.11719C18.8945 8.03906 18.7031 8 18.5 8H9.5C9.28906 8 9.09375 8.03906 8.91406 8.11719C8.73438 8.19531 8.57422 8.30469 8.43359 8.44531C8.30078 8.57812 8.19531 8.73438 8.11719 8.91406C8.03906 9.09375 8 9.28906 8 9.5V18.5ZM5 10.25V11.75C5 11.9531 4.92578 12.1289 4.77734 12.2773C4.62891 12.4258 4.45312 12.5 4.25 12.5C4.04688 12.5 3.87109 12.4258 3.72266 12.2773C3.57422 12.1289 3.5 11.9531 3.5 11.75V10.25C3.5 10.0469 3.57422 9.87109 3.72266 9.72266C3.87109 9.57422 4.04688 9.5 4.25 9.5C4.45312 9.5 4.62891 9.57422 4.77734 9.72266C4.92578 9.87109 5 10.0469 5 10.25ZM15.5 11C15.5 10.7891 15.5391 10.5938 15.6172 10.4141C15.6953 10.2344 15.8008 10.0781 15.9336 9.94531C16.0742 9.80469 16.2344 9.69531 16.4141 9.61719C16.5938 9.53906 16.7891 9.5 17 9.5C17.2031 9.5 17.3945 9.53906 17.5742 9.61719C17.7617 9.69531 17.9219 9.80469 18.0547 9.94531C18.1953 10.0781 18.3047 10.2383 18.3828 10.4258C18.4609 10.6055 18.5 10.7969 18.5 11C18.5 11.2109 18.4609 11.4062 18.3828 11.5859C18.3047 11.7656 18.1953 11.9258 18.0547 12.0664C17.9219 12.1992 17.7656 12.3047 17.5859 12.3828C17.4062 12.4609 17.2109 12.5 17 12.5C16.7891 12.5 16.5898 12.4609 16.4023 12.3828C16.2227 12.3047 16.0664 12.1992 15.9336 12.0664C15.8008 11.9336 15.6953 11.7773 15.6172 11.5977C15.5391 11.4102 15.5 11.2109 15.5 11ZM18.5 20C18.5625 20 18.6289 19.9961 18.6992 19.9883C18.7695 19.9805 18.8359 19.9688 18.8984 19.9531L14.5391 15.5938C14.3984 15.4531 14.2227 15.3828 14.0117 15.3828C13.793 15.3828 13.6133 15.4531 13.4727 15.5938L9.11328 19.9531C9.23047 19.9844 9.35938 20 9.5 20H18.5Z" fill="white"/>
</svg>
