<svg width="32" height="32" viewBox="0 0 32 32" fill="none" xmlns="http://www.w3.org/2000/svg">
<path d="M23.6667 4C26.0599 4 28 5.94009 28 8.33333V23.6667C28 26.0599 26.0599 28 23.6667 28H8.33333C5.94009 28 4 26.0599 4 23.6667V8.33333C4 5.94009 5.94009 4 8.33333 4H23.6667ZM24.4407 25.8685L16.6996 18.2864C16.3461 17.9404 15.8001 17.9088 15.4117 18.192L15.3003 18.2864L7.55793 25.8681C7.80053 25.9535 8.06151 26 8.33333 26H23.6667C23.938 26 24.1985 25.9537 24.4407 25.8685ZM23.6667 6H8.33333C7.04467 6 6 7.04467 6 8.33333V23.6667C6 23.9445 6.04857 24.2111 6.13768 24.4583L13.9011 16.8573C15.0119 15.7697 16.7567 15.718 17.9277 16.7021L18.0989 16.8575L25.8619 24.4596C25.9512 24.212 26 23.9451 26 23.6667V8.33333C26 7.04467 24.9553 6 23.6667 6ZM20.3361 8.66667C21.9945 8.66667 23.3389 10.0111 23.3389 11.6695C23.3389 13.3279 21.9945 14.6723 20.3361 14.6723C18.6777 14.6723 17.3333 13.3279 17.3333 11.6695C17.3333 10.0111 18.6777 8.66667 20.3361 8.66667ZM20.3361 10.6667C19.7823 10.6667 19.3333 11.1156 19.3333 11.6695C19.3333 12.2233 19.7823 12.6723 20.3361 12.6723C20.89 12.6723 21.3389 12.2233 21.3389 11.6695C21.3389 11.1156 20.89 10.6667 20.3361 10.6667Z" fill="white"/>
</svg>
