<svg width="32" height="32" viewBox="0 0 32 32" fill="none" xmlns="http://www.w3.org/2000/svg">
<path d="M2.66666 8.33333C2.66666 5.94009 4.60676 4 7 4H25C27.3932 4 29.3333 5.94009 29.3333 8.33333V23.6667C29.3333 26.0599 27.3932 28 25 28H7C4.60676 28 2.66666 26.0599 2.66666 23.6667V8.33333ZM7 6C5.71133 6 4.66666 7.04467 4.66666 8.33333V23.6667C4.66666 24.9553 5.71133 26 7 26H25C26.2887 26 27.3333 24.9553 27.3333 23.6667V8.33333C27.3333 7.04467 26.2887 6 25 6H7ZM12 12.3343V19.6668C12 20.6809 13.0873 21.3239 13.9759 20.8351L20.642 17.1688C21.5631 16.6623 21.5631 15.3388 20.642 14.8323L13.9759 11.166C13.0873 10.6773 12 11.3201 12 12.3343Z" fill="white"/>
</svg>
