<svg width="20" height="18" viewBox="0 0 20 18" fill="none" xmlns="http://www.w3.org/2000/svg">
<path d="M15 16.8027C15 16.6921 15.0195 16.6042 15.0586 16.5391C15.1042 16.4674 15.1628 16.3926 15.2344 16.3145C15.3255 16.2233 15.4232 16.1387 15.5273 16.0605C15.6315 15.9759 15.7324 15.888 15.8301 15.7969C16.2988 15.3672 16.7155 14.8919 17.0801 14.3711C17.4447 13.8438 17.7507 13.2871 17.998 12.7012C18.2454 12.1152 18.431 11.5098 18.5547 10.8848C18.6849 10.2598 18.75 9.63151 18.75 9C18.75 8.375 18.6849 7.75 18.5547 7.125C18.431 6.49349 18.2422 5.88477 17.9883 5.29883C17.7409 4.70638 17.4349 4.14648 17.0703 3.61914C16.7122 3.0918 16.2988 2.61654 15.8301 2.19336C15.7324 2.10221 15.6315 2.01758 15.5273 1.93945C15.4232 1.85482 15.3255 1.76693 15.2344 1.67578C15.1562 1.59766 15.0977 1.52604 15.0586 1.46094C15.0195 1.39583 15 1.30469 15 1.1875C15 1.01172 15.0586 0.865234 15.1758 0.748047C15.2995 0.630859 15.4492 0.572266 15.625 0.572266C15.7031 0.572266 15.7715 0.585286 15.8301 0.611328C15.8887 0.630859 15.9505 0.663411 16.0156 0.708984C16.3086 0.897786 16.5983 1.13867 16.8848 1.43164C17.1712 1.72461 17.4414 2.04036 17.6953 2.37891C17.9557 2.71094 18.1934 3.05273 18.4082 3.4043C18.623 3.75586 18.8053 4.08789 18.9551 4.40039C19.3001 5.12305 19.5605 5.87174 19.7363 6.64648C19.9121 7.41471 20 8.19922 20 9C20 9.79427 19.9121 10.582 19.7363 11.3633C19.5605 12.138 19.3001 12.8835 18.9551 13.5996C18.8053 13.9056 18.623 14.2376 18.4082 14.5957C18.1934 14.9473 17.9557 15.2923 17.6953 15.6309C17.4349 15.9629 17.1615 16.2754 16.875 16.5684C16.5885 16.8613 16.3021 17.1022 16.0156 17.291C15.944 17.3366 15.8789 17.3724 15.8203 17.3984C15.7682 17.418 15.7031 17.4277 15.625 17.4277C15.4557 17.4277 15.3092 17.3659 15.1855 17.2422C15.0618 17.1185 15 16.972 15 16.8027ZM4.12109 12.75H1.875C1.62109 12.75 1.38021 12.7012 1.15234 12.6035C0.924479 12.5059 0.722656 12.3724 0.546875 12.2031C0.377604 12.0273 0.244141 11.8255 0.146484 11.5977C0.0488281 11.3698 0 11.1289 0 10.875V7.125C0 6.87109 0.0488281 6.63021 0.146484 6.40234C0.244141 6.17448 0.377604 5.97591 0.546875 5.80664C0.722656 5.63086 0.924479 5.49414 1.15234 5.39648C1.38021 5.29883 1.62109 5.25 1.875 5.25H4.12109L7.14844 2.21289C7.23958 2.12174 7.34049 2.05664 7.45117 2.01758C7.56836 1.97201 7.6888 1.94922 7.8125 1.94922C8.07943 1.94922 8.30078 2.03711 8.47656 2.21289C8.65885 2.38867 8.75 2.61003 8.75 2.87695V15.123C8.75 15.2533 8.72396 15.3737 8.67188 15.4844C8.6263 15.5951 8.55794 15.696 8.4668 15.7871C8.38216 15.8717 8.28125 15.9401 8.16406 15.9922C8.05339 16.0378 7.9362 16.0605 7.8125 16.0605C7.55208 16.0605 7.33073 15.9694 7.14844 15.7871L4.12109 12.75ZM12.5391 14.5566C12.5391 14.446 12.5553 14.3613 12.5879 14.3027C12.627 14.2441 12.6823 14.1725 12.7539 14.0879C13.112 13.6842 13.431 13.2969 13.7109 12.9258C13.9909 12.5547 14.2253 12.1738 14.4141 11.7832C14.6029 11.3861 14.7461 10.9629 14.8438 10.5137C14.9479 10.0645 15 9.5599 15 9C15 8.4401 14.9479 7.93555 14.8438 7.48633C14.7461 7.03711 14.6029 6.61719 14.4141 6.22656C14.2253 5.82943 13.9909 5.44531 13.7109 5.07422C13.431 4.70312 13.112 4.31576 12.7539 3.91211C12.6823 3.82747 12.627 3.75586 12.5879 3.69727C12.5553 3.63867 12.5391 3.55404 12.5391 3.44336C12.5391 3.27409 12.6009 3.13086 12.7246 3.01367C12.8548 2.88997 13.0046 2.82812 13.1738 2.82812C13.2715 2.82812 13.3464 2.84115 13.3984 2.86719C13.4505 2.88672 13.5156 2.92578 13.5938 2.98438C13.7891 3.13411 13.9811 3.31966 14.1699 3.54102C14.3652 3.75586 14.5475 3.98698 14.7168 4.23438C14.8926 4.48177 15.0521 4.73568 15.1953 4.99609C15.3385 5.25 15.459 5.49089 15.5566 5.71875C16.0189 6.76042 16.25 7.85417 16.25 9C16.25 10.1458 16.0189 11.2396 15.5566 12.2812C15.4655 12.4896 15.3451 12.7272 15.1953 12.9941C15.0521 13.2546 14.8926 13.515 14.7168 13.7754C14.541 14.0293 14.3555 14.2669 14.1602 14.4883C13.9714 14.7096 13.7826 14.8854 13.5938 15.0156C13.5221 15.0612 13.4538 15.1003 13.3887 15.1328C13.3301 15.1589 13.2585 15.1719 13.1738 15.1719C13.0046 15.1719 12.8548 15.1133 12.7246 14.9961C12.6009 14.8724 12.5391 14.7259 12.5391 14.5566ZM7.5 14.3613V3.62891L4.81445 6.31445C4.69076 6.43815 4.54427 6.5 4.375 6.5H1.875C1.70573 6.5 1.55924 6.56185 1.43555 6.68555C1.31185 6.80924 1.25 6.95573 1.25 7.125V10.875C1.25 11.0443 1.31185 11.1908 1.43555 11.3145C1.55924 11.4382 1.70573 11.5 1.875 11.5H4.375C4.54427 11.5 4.69076 11.5618 4.81445 11.6855L7.5 14.3613ZM10.1172 12.1738C10.1172 12.0827 10.127 12.0111 10.1465 11.959C10.1725 11.9069 10.2116 11.8451 10.2637 11.7734C10.4134 11.5456 10.5501 11.3275 10.6738 11.1191C10.7975 10.9043 10.9017 10.6895 10.9863 10.4746C11.071 10.2533 11.1361 10.0254 11.1816 9.79102C11.2272 9.55013 11.25 9.28646 11.25 9C11.25 8.72005 11.2272 8.45964 11.1816 8.21875C11.1361 7.97786 11.071 7.75 10.9863 7.53516C10.9017 7.3138 10.7975 7.09896 10.6738 6.89062C10.5501 6.67578 10.4134 6.45443 10.2637 6.22656C10.2116 6.15495 10.1725 6.0931 10.1465 6.04102C10.127 5.98893 10.1172 5.91732 10.1172 5.82617C10.1172 5.6569 10.179 5.51042 10.3027 5.38672C10.4264 5.26302 10.5729 5.20117 10.7422 5.20117C10.8529 5.20117 10.944 5.2207 11.0156 5.25977C11.0872 5.29883 11.1589 5.35742 11.2305 5.43555C11.4388 5.66341 11.6211 5.92057 11.7773 6.20703C11.9336 6.48698 12.0638 6.78646 12.168 7.10547C12.2786 7.41797 12.36 7.73698 12.4121 8.0625C12.4707 8.38802 12.5 8.70052 12.5 9C12.5 9.28646 12.4707 9.5957 12.4121 9.92773C12.36 10.2533 12.2786 10.5788 12.168 10.9043C12.0638 11.2233 11.9303 11.5293 11.7676 11.8223C11.6113 12.1087 11.4323 12.3561 11.2305 12.5645C11.0938 12.7142 10.931 12.7891 10.7422 12.7891C10.5729 12.7891 10.4264 12.7305 10.3027 12.6133C10.179 12.4896 10.1172 12.3431 10.1172 12.1738Z" fill="white"/>
</svg>
