<svg width="32" height="26" viewBox="0 0 32 26" fill="none" xmlns="http://www.w3.org/2000/svg">
<g clip-path="url(#clip0_146_9180)" filter="url(#filter0_d_146_9180)">
<path d="M16 4.5C15.1562 4.5 14.3203 4.58594 13.4922 4.75781C12.6719 4.92188 11.875 5.16797 11.1016 5.49609C10.3281 5.81641 9.58984 6.21094 8.88672 6.67969C8.18359 7.14844 7.53516 7.68359 6.94141 8.28516C6.64453 8.58203 6.37891 8.89453 6.14453 9.22266C5.91016 9.54297 5.66016 9.85938 5.39453 10.1719C5.30078 10.2812 5.21094 10.3633 5.125 10.418C5.03906 10.4727 4.92188 10.5 4.77344 10.5C4.5625 10.5 4.38281 10.4297 4.23438 10.2891C4.09375 10.1406 4.02344 9.96094 4.02344 9.75C4.02344 9.60156 4.06641 9.46094 4.15234 9.32812C4.76953 8.34375 5.51562 7.46094 6.39062 6.67969C7.27344 5.89844 8.23438 5.23438 9.27344 4.6875C10.3125 4.14062 11.4023 3.72266 12.543 3.43359C13.6914 3.14453 14.8438 3 16 3C17.1484 3 18.2969 3.14453 19.4453 3.43359C20.5938 3.72266 21.6836 4.14062 22.7148 4.6875C23.7539 5.23438 24.7109 5.89844 25.5859 6.67969C26.4688 7.46094 27.2227 8.34375 27.8477 9.32812C27.9336 9.46094 27.9766 9.60156 27.9766 9.75C27.9766 9.96094 27.9023 10.1406 27.7539 10.2891C27.6133 10.4297 27.4375 10.5 27.2266 10.5C27.0938 10.5 26.9766 10.4727 26.875 10.418C26.7812 10.3555 26.6914 10.2734 26.6055 10.1719C26.5195 10.0625 26.4375 9.95312 26.3594 9.84375C26.2891 9.72656 26.2109 9.61328 26.125 9.50391C25.9609 9.28516 25.7891 9.07812 25.6094 8.88281C25.4297 8.67969 25.2461 8.48047 25.0586 8.28516C24.457 7.68359 23.8047 7.14844 23.1016 6.67969C22.4062 6.21094 21.6719 5.81641 20.8984 5.49609C20.1328 5.16797 19.3359 4.92188 18.5078 4.75781C17.6797 4.58594 16.8438 4.5 16 4.5ZM16 9C15.4219 9 14.8477 9.0625 14.2773 9.1875C13.707 9.3125 13.1562 9.49609 12.625 9.73828C12.1016 9.97266 11.6016 10.2617 11.125 10.6055C10.6562 10.9492 10.2305 11.3359 9.84766 11.7656C9.66016 11.9766 9.48828 12.1992 9.33203 12.4336C9.18359 12.668 9.02344 12.8984 8.85156 13.125C8.75781 13.2422 8.66406 13.3359 8.57031 13.4062C8.48438 13.4688 8.36328 13.5 8.20703 13.5C8.00391 13.5 7.82812 13.4258 7.67969 13.2773C7.53125 13.1289 7.45703 12.9531 7.45703 12.75C7.45703 12.625 7.48828 12.5 7.55078 12.375C7.94922 11.6328 8.45703 10.9609 9.07422 10.3594C9.69141 9.75781 10.375 9.24609 11.125 8.82422C11.875 8.40234 12.6641 8.07812 13.4922 7.85156C14.3281 7.61719 15.1641 7.5 16 7.5C16.8281 7.5 17.6602 7.61719 18.4961 7.85156C19.332 8.07812 20.125 8.40234 20.875 8.82422C21.625 9.24609 22.3086 9.75781 22.9258 10.3594C23.543 10.9609 24.0508 11.6328 24.4492 12.375C24.5117 12.5 24.543 12.625 24.543 12.75C24.543 12.9531 24.4688 13.1289 24.3203 13.2773C24.1719 13.4258 23.9961 13.5 23.793 13.5C23.6367 13.5 23.5117 13.4688 23.418 13.4062C23.332 13.3359 23.2422 13.2422 23.1484 13.125C22.9766 12.8984 22.8125 12.668 22.6562 12.4336C22.5078 12.1992 22.3398 11.9766 22.1523 11.7656C21.7695 11.3359 21.3398 10.9492 20.8633 10.6055C20.3945 10.2617 19.8945 9.97266 19.3633 9.73828C18.8398 9.49609 18.293 9.3125 17.7227 9.1875C17.1523 9.0625 16.5781 9 16 9ZM16 13.5C15.5625 13.5 15.1445 13.5625 14.7461 13.6875C14.3477 13.8047 13.9609 13.9766 13.5859 14.2031C13.375 14.3359 13.1914 14.4688 13.0352 14.6016C12.8867 14.7344 12.75 14.875 12.625 15.0234C12.5078 15.1719 12.3945 15.332 12.2852 15.5039C12.1758 15.668 12.0586 15.8555 11.9336 16.0664C11.8555 16.1992 11.7617 16.3047 11.6523 16.3828C11.543 16.4609 11.4102 16.5 11.2539 16.5C11.043 16.5 10.8633 16.4258 10.7148 16.2773C10.5742 16.1289 10.5039 15.9492 10.5039 15.7383C10.5039 15.6367 10.5273 15.5312 10.5742 15.4219C10.8008 14.9219 11.1094 14.4609 11.5 14.0391C11.8906 13.6172 12.3281 13.2578 12.8125 12.9609C13.2969 12.6562 13.8125 12.4219 14.3594 12.2578C14.9062 12.0859 15.4531 12 16 12C16.5625 12 17.1172 12.082 17.6641 12.2461C18.2109 12.4102 18.7227 12.6406 19.1992 12.9375C19.6836 13.2344 20.1172 13.5938 20.5 14.0156C20.8828 14.4375 21.1914 14.9062 21.4258 15.4219C21.4727 15.5312 21.4961 15.6367 21.4961 15.7383C21.4961 15.9414 21.4219 16.1211 21.2734 16.2773C21.125 16.4258 20.9492 16.5 20.7461 16.5C20.5898 16.5 20.457 16.4609 20.3477 16.3828C20.2383 16.3047 20.1445 16.1992 20.0664 16.0664C19.9414 15.8555 19.8242 15.668 19.7148 15.5039C19.6055 15.332 19.4883 15.1719 19.3633 15.0234C19.2383 14.875 19.0977 14.7344 18.9414 14.6016C18.793 14.4688 18.6133 14.3359 18.4023 14.2031C18.0352 13.9766 17.6484 13.8047 17.2422 13.6875C16.8438 13.5625 16.4297 13.5 16 13.5ZM14.125 18C14.125 17.7422 14.1758 17.5 14.2773 17.2734C14.3789 17.0469 14.5117 16.8516 14.6758 16.6875C14.8477 16.5156 15.0469 16.3789 15.2734 16.2773C15.5 16.1758 15.7422 16.125 16 16.125C16.2578 16.125 16.5 16.1758 16.7266 16.2773C16.9531 16.3789 17.1484 16.5156 17.3125 16.6875C17.4844 16.8516 17.6211 17.0469 17.7227 17.2734C17.8242 17.5 17.875 17.7422 17.875 18C17.875 18.2578 17.8242 18.5 17.7227 18.7266C17.6211 18.9531 17.4844 19.1523 17.3125 19.3242C17.1484 19.4883 16.9531 19.6211 16.7266 19.7227C16.5 19.8242 16.2578 19.875 16 19.875C15.7422 19.875 15.5 19.8242 15.2734 19.7227C15.0469 19.6211 14.8477 19.4883 14.6758 19.3242C14.5117 19.1523 14.3789 18.9531 14.2773 18.7266C14.1758 18.5 14.125 18.2578 14.125 18Z" fill="white"/>
</g>
<defs>
<filter id="filter0_d_146_9180" x="0.0219727" y="-2" width="32.1499" height="32" filterUnits="userSpaceOnUse" color-interpolation-filters="sRGB">
<feFlood flood-opacity="0" result="BackgroundImageFix"/>
<feColorMatrix in="SourceAlpha" type="matrix" values="0 0 0 0 0 0 0 0 0 0 0 0 0 0 0 0 0 0 127 0" result="hardAlpha"/>
<feOffset dy="2"/>
<feGaussianBlur stdDeviation="2"/>
<feComposite in2="hardAlpha" operator="out"/>
<feColorMatrix type="matrix" values="0 0 0 0 0 0 0 0 0 0 0 0 0 0 0 0 0 0 0.13 0"/>
<feBlend mode="normal" in2="BackgroundImageFix" result="effect1_dropShadow_146_9180"/>
<feBlend mode="normal" in="SourceGraphic" in2="effect1_dropShadow_146_9180" result="shape"/>
</filter>
<clipPath id="clip0_146_9180">
<rect width="24.15" height="24" fill="white" transform="translate(4.02197)"/>
</clipPath>
</defs>
</svg>
