<svg width="24" height="24" viewBox="0 0 24 24" fill="none" xmlns="http://www.w3.org/2000/svg">
<g clip-path="url(#clip0_228_11031)">
<g filter="url(#filter0_d_228_11031)">
<path d="M21 12C21 12.832 20.8945 13.6318 20.6836 14.3994C20.4727 15.167 20.1709 15.8818 19.7783 16.5439C19.3857 17.2061 18.917 17.8125 18.3721 18.3633C17.8271 18.9141 17.2207 19.3828 16.5527 19.7695C15.8848 20.1562 15.167 20.458 14.3994 20.6748C13.6318 20.8916 12.832 21 12 21C11.168 21 10.3682 20.8945 9.60059 20.6836C8.83301 20.4727 8.11523 20.1709 7.44727 19.7783C6.7793 19.3857 6.17285 18.917 5.62793 18.3721C5.08301 17.8271 4.61719 17.2207 4.23047 16.5527C3.84375 15.8848 3.54199 15.167 3.3252 14.3994C3.1084 13.6318 3 12.832 3 12C3 11.8477 3.05566 11.7158 3.16699 11.6045C3.27832 11.4932 3.41016 11.4375 3.5625 11.4375C3.71484 11.4375 3.84668 11.4932 3.95801 11.6045C4.06934 11.7158 4.125 11.8477 4.125 12C4.125 12.7031 4.20996 13.3857 4.37988 14.0479C4.5498 14.71 4.81641 15.3457 5.17969 15.9551C5.53711 16.5645 5.96191 17.1094 6.4541 17.5898C6.94629 18.0703 7.48535 18.4834 8.07129 18.8291C8.65723 19.1748 9.28125 19.4326 9.94336 19.6025C10.6055 19.7725 11.291 19.8633 12 19.875C12.7266 19.875 13.4238 19.7813 14.0918 19.5938C14.7598 19.4062 15.3867 19.1426 15.9727 18.8027C16.5586 18.4629 17.0889 18.0527 17.5635 17.5723C18.0381 17.0918 18.4482 16.5615 18.7939 15.9814C19.1396 15.4014 19.4062 14.7744 19.5938 14.1006C19.7813 13.4268 19.875 12.7266 19.875 12C19.875 11.2793 19.7813 10.585 19.5938 9.91699C19.4062 9.24902 19.1426 8.62207 18.8027 8.03613C18.4629 7.4502 18.0498 6.91699 17.5635 6.43652C17.0771 5.95605 16.5469 5.5459 15.9727 5.20605C15.3984 4.86621 14.7715 4.59961 14.0918 4.40625C13.4121 4.21289 12.7148 4.11914 12 4.125C11.3555 4.125 10.7256 4.20117 10.1104 4.35352C9.49512 4.50586 8.91211 4.72852 8.36133 5.02148C7.81055 5.31445 7.29492 5.66895 6.81445 6.08496C6.33398 6.50098 5.90918 6.97266 5.54004 7.5H9.1875C9.33984 7.5 9.47168 7.55566 9.58301 7.66699C9.69434 7.77832 9.75 7.91016 9.75 8.0625C9.75 8.21484 9.69434 8.34668 9.58301 8.45801C9.47168 8.56934 9.33984 8.625 9.1875 8.625H4.6875C4.56445 8.625 4.46484 8.60156 4.38867 8.55469C4.3125 8.50781 4.25391 8.44336 4.21289 8.36133C4.17188 8.2793 4.14551 8.19141 4.13379 8.09766C4.12207 8.00391 4.11621 7.9043 4.11621 7.79883V6.73535L4.125 4.62598V3.5625C4.125 3.41016 4.18066 3.27832 4.29199 3.16699C4.40332 3.05566 4.53516 3 4.6875 3C4.83984 3 4.97168 3.05566 5.08301 3.16699C5.19434 3.27832 5.25 3.41016 5.25 3.5625V6.0498C5.67773 5.56934 6.14941 5.13867 6.66504 4.75781C7.18066 4.37695 7.72559 4.05762 8.2998 3.7998C8.87402 3.54199 9.47168 3.3457 10.0928 3.21094C10.7139 3.07617 11.3496 3.00586 12 3C12.8262 3 13.623 3.10547 14.3906 3.31641C15.1582 3.52734 15.876 3.8291 16.5439 4.22168C17.2119 4.61426 17.8184 5.08301 18.3633 5.62793C18.9082 6.17285 19.377 6.78223 19.7695 7.45605C20.1621 8.12988 20.4639 8.84766 20.6748 9.60938C20.8857 10.3711 20.9941 11.168 21 12Z" fill="white"/>
</g>
</g>
<defs>
<filter id="filter0_d_228_11031" x="-13" y="-5" width="50" height="50" filterUnits="userSpaceOnUse" color-interpolation-filters="sRGB">
<feFlood flood-opacity="0" result="BackgroundImageFix"/>
<feColorMatrix in="SourceAlpha" type="matrix" values="0 0 0 0 0 0 0 0 0 0 0 0 0 0 0 0 0 0 127 0" result="hardAlpha"/>
<feOffset dy="8"/>
<feGaussianBlur stdDeviation="8"/>
<feComposite in2="hardAlpha" operator="out"/>
<feColorMatrix type="matrix" values="0 0 0 0 0 0 0 0 0 0 0 0 0 0 0 0 0 0 0.26 0"/>
<feBlend mode="normal" in2="BackgroundImageFix" result="effect1_dropShadow_228_11031"/>
<feBlend mode="normal" in="SourceGraphic" in2="effect1_dropShadow_228_11031" result="shape"/>
</filter>
<clipPath id="clip0_228_11031">
<rect width="24" height="24" rx="12" fill="white"/>
</clipPath>
</defs>
</svg>
